<svg xmlns="http://www.w3.org/2000/svg" xmlns:xlink="http://www.w3.org/1999/xlink" width="500" zoomAndPan="magnify" viewBox="0 0 375 374.999991" height="500" preserveAspectRatio="xMidYMid meet" version="1.0"><defs><clipPath id="b007fea953"><path d="M 12.730469 15.351562 L 353.980469 15.351562 L 353.980469 351.351562 L 12.730469 351.351562 Z M 12.730469 15.351562 " clip-rule="nonzero"/></clipPath><clipPath id="0aeac6a4ef"><path d="M 34 63.027344 L 193.90625 63.027344 L 193.90625 228.777344 L 34 228.777344 Z M 34 63.027344 " clip-rule="nonzero"/></clipPath><clipPath id="30f26e557d"><path d="M 260 145.796875 L 313 145.796875 L 313 292.796875 L 260 292.796875 Z M 260 145.796875 " clip-rule="nonzero"/></clipPath><clipPath id="04917cb967"><path d="M 183.363281 148 L 241 148 L 241 291 L 183.363281 291 Z M 183.363281 148 " clip-rule="nonzero"/></clipPath></defs><g clip-path="url(#b007fea953)"><path fill="#000000" d="M 183.4375 15.414062 C 177.253906 15.414062 171.144531 15.765625 165.128906 16.398438 C 149.347656 17.671875 135.078125 20.59375 125.4375 24.949219 L 125.398438 24.96875 L 125.378906 24.96875 C 124.957031 25.246094 124.667969 25.5 124.257812 25.777344 C 119.011719 27.273438 114.183594 29.324219 109.761719 31.890625 C 52.886719 58.816406 13.492188 115.945312 12.980469 182.164062 L 12.921875 182.339844 L 12.921875 182.441406 C 12.917969 182.648438 12.957031 182.84375 12.960938 183.050781 C 12.960938 183.1875 12.941406 183.324219 12.941406 183.460938 C 12.941406 216.074219 22.414062 246.507812 38.742188 272.28125 C 40.214844 275.816406 42.570312 279.203125 45.707031 282.445312 C 68.359375 313.007812 101.21875 335.738281 139.324219 345.789062 C 153.398438 349.5 168.175781 351.507812 183.4375 351.507812 C 188.621094 351.507812 193.75 351.25 198.816406 350.800781 C 198.984375 350.785156 199.160156 350.792969 199.328125 350.761719 C 204.972656 350.246094 210.53125 349.46875 216.003906 348.421875 C 228.398438 346.488281 239.808594 343.324219 248.675781 338.730469 C 269.660156 330.148438 288.535156 317.566406 304.3125 301.929688 L 304.449219 301.792969 C 312.835938 293.996094 320.0625 285.136719 326.066406 275.488281 C 343.671875 249.050781 353.933594 217.4375 353.933594 183.464844 C 353.933594 147.027344 342.125 113.316406 322.113281 85.78125 L 321.402344 84.816406 C 302.738281 59.511719 277.109375 39.542969 247.277344 27.648438 C 247.257812 27.640625 247.238281 27.632812 247.21875 27.628906 C 235.964844 21.832031 220.652344 18.34375 204.425781 16.734375 C 197.542969 15.902344 190.550781 15.417969 183.4375 15.417969 Z M 179.996094 16.457031 C 183.054688 16.417969 186.140625 16.429688 189.222656 16.515625 C 193.695312 16.640625 198.144531 16.941406 202.554688 17.34375 C 203.3125 17.425781 204.0625 17.542969 204.816406 17.636719 C 199.292969 18.234375 193.003906 21.527344 185.996094 27.484375 C 185.949219 27.496094 185.902344 27.496094 185.859375 27.507812 C 185.257812 27.335938 184.691406 27.140625 184.085938 26.976562 L 183.988281 26.9375 L 183.890625 26.957031 L 182.199219 27.328125 C 179.757812 24.171875 177.414062 21.539062 175.257812 19.9375 C 172.996094 18.257812 170.851562 17.390625 168.863281 17.324219 C 168.203125 17.300781 167.546875 17.367188 166.917969 17.519531 C 164.402344 18.128906 162.234375 20.101562 160.367188 23.160156 C 160.246094 23.359375 160.152344 23.660156 160.035156 23.867188 C 155.082031 23.214844 150.296875 22.800781 145.796875 22.808594 C 141.039062 22.816406 136.609375 23.289062 132.34375 23.988281 C 143.125 20.636719 154.34375 18.316406 165.933594 17.144531 L 166.070312 17.125 C 170.628906 16.777344 175.265625 16.519531 179.996094 16.457031 Z M 168.84375 18.109375 C 170.636719 18.167969 172.609375 18.949219 174.785156 20.566406 C 176.796875 22.058594 179.039062 24.546875 181.375 27.527344 C 180.761719 27.660156 180.171875 27.804688 179.5625 27.9375 C 173.003906 26.113281 166.769531 24.792969 160.859375 23.96875 C 160.925781 23.855469 160.972656 23.683594 161.039062 23.574219 C 162.839844 20.617188 164.875 18.828125 167.113281 18.285156 C 167.675781 18.148438 168.246094 18.089844 168.84375 18.109375 Z M 207.058594 18.285156 C 208 18.300781 208.90625 18.410156 209.792969 18.582031 C 213.59375 19.316406 216.957031 21.5 219.921875 24.890625 C 219.132812 24.863281 218.402344 24.769531 217.601562 24.753906 C 208.363281 24.582031 198.3125 25.421875 187.511719 27.230469 C 194.96875 21.125 201.503906 18.199219 207.058594 18.285156 Z M 213.273438 18.894531 C 225.011719 20.949219 236.332031 24.167969 247.101562 28.46875 C 247.925781 28.898438 248.628906 29.390625 249.402344 29.84375 C 240.949219 27.058594 231.433594 25.441406 220.984375 24.96875 C 218.683594 22.191406 216.121094 20.125 213.277344 18.894531 Z M 137.476562 21.648438 C 136.816406 21.828125 136.148438 22.007812 135.492188 22.199219 C 136.144531 22.011719 136.800781 21.828125 137.476562 21.648438 Z M 145.816406 23.574219 C 150.199219 23.570312 154.863281 23.984375 159.683594 24.617188 C 158.792969 26.285156 157.960938 28.207031 157.203125 30.394531 C 137.789062 32.777344 120.796875 36.886719 106.007812 42.40625 C 109.859375 37.601562 115.976562 32.332031 124.378906 26.679688 C 124.972656 26.460938 125.570312 26.242188 126.167969 26.03125 C 132.183594 24.480469 138.679688 23.578125 145.816406 23.574219 Z M 160.488281 24.714844 C 166 25.476562 171.816406 26.671875 177.914062 28.3125 L 176.261719 28.683594 C 169.996094 29.066406 163.898438 29.582031 158.070312 30.277344 C 158.816406 28.15625 159.621094 26.304688 160.488281 24.714844 Z M 217.582031 25.519531 C 218.625 25.539062 219.570312 25.675781 220.59375 25.71875 C 222.109375 27.589844 223.464844 29.9375 224.761719 32.460938 C 213.9375 30.570312 202.277344 29.285156 189.753906 28.644531 C 189.019531 28.429688 188.289062 28.210938 187.550781 27.996094 C 198.34375 26.183594 208.378906 25.351562 217.582031 25.519531 Z M 221.652344 25.777344 C 233.382812 26.367188 243.796875 28.53125 252.964844 32.046875 C 257.546875 35.871094 260.9375 39.472656 263.347656 42.859375 C 252.140625 38.554688 239.621094 35.097656 225.722656 32.617188 C 224.460938 30.09375 223.140625 27.707031 221.652344 25.777344 Z M 183.992188 27.761719 C 184.03125 27.773438 184.070312 27.789062 184.109375 27.800781 L 183.183594 27.957031 C 183.460938 27.898438 183.71875 27.820312 183.992188 27.761719 Z M 121.371094 27.859375 C 113.769531 33.234375 108.132812 38.277344 104.65625 42.9375 C 100.351562 44.585938 96.1875 46.324219 92.265625 48.207031 C 97.015625 42.140625 102.65625 37.054688 109.199219 33.089844 C 113.164062 31.183594 117.238281 29.460938 121.371094 27.859375 Z M 181.90625 28.234375 C 181.9375 28.273438 181.972656 28.308594 182.003906 28.351562 C 181.757812 28.363281 181.523438 28.398438 181.277344 28.410156 L 181.238281 28.390625 Z M 186.136719 28.390625 L 186.449219 28.488281 L 186.035156 28.46875 Z M 183.792969 29.15625 L 184.011719 29.175781 C 183.984375 29.199219 183.957031 29.210938 183.933594 29.234375 L 183.796875 29.15625 Z M 185.152344 29.214844 C 186.660156 29.273438 188.132812 29.355469 189.617188 29.433594 C 203.96875 33.679688 217.242188 38.601562 229.464844 44.136719 C 229.949219 45.742188 230.363281 47.523438 230.800781 49.25 C 223.742188 48.347656 216.5625 47.691406 209.304688 47.28125 C 201.605469 41.050781 193.378906 35.167969 184.601562 29.6875 Z M 180.3125 29.234375 C 171.191406 33.714844 162.613281 38.65625 154.550781 44 C 155.089844 41.011719 155.699219 38.234375 156.359375 35.703125 C 156.449219 35.355469 156.5625 35.097656 156.652344 34.761719 C 163.042969 32.828125 169.671875 31.074219 176.539062 29.472656 C 177.796875 29.398438 179.039062 29.296875 180.3125 29.234375 Z M 181.789062 29.355469 C 182.203125 29.476562 182.589844 29.5625 183.007812 29.6875 L 183.144531 29.882812 C 183.027344 29.992188 182.929688 30.070312 182.8125 30.179688 L 182.792969 30.179688 L 182.773438 30.199219 C 178.355469 35.171875 174.246094 40.953125 170.382812 47.28125 C 164.835938 47.582031 159.332031 48.019531 153.882812 48.5625 C 154.058594 47.390625 154.199219 46.15625 154.390625 45.042969 C 162.933594 39.34375 172.046875 34.070312 181.789062 29.355469 Z M 192.941406 29.589844 C 204.441406 30.289062 215.171875 31.554688 225.195312 33.324219 C 225.707031 34.367188 226.273438 35.269531 226.75 36.410156 C 227.609375 38.464844 228.367188 40.765625 229.109375 43.117188 C 217.925781 38.085938 205.886719 33.550781 192.941406 29.589844 Z M 171.71875 29.746094 C 166.648438 31.003906 161.75 32.394531 156.949219 33.835938 C 157.226562 32.878906 157.519531 31.980469 157.8125 31.105469 C 162.324219 30.558594 166.945312 30.101562 171.71875 29.746094 Z M 183.636719 30.515625 C 183.910156 30.902344 184.148438 31.148438 184.425781 31.554688 L 184.445312 31.59375 C 186.144531 36.46875 187.757812 41.5625 189.320312 46.753906 C 187.988281 46.753906 186.660156 46.734375 185.328125 46.753906 C 181.289062 46.804688 177.238281 46.917969 173.214844 47.105469 C 172.601562 47.132812 171.996094 47.191406 171.386719 47.222656 C 175.132812 41.136719 179.085938 35.542969 183.34375 30.75 C 183.441406 30.65625 183.539062 30.605469 183.636719 30.515625 Z M 184.738281 30.671875 C 192.957031 35.832031 200.679688 41.378906 207.945312 47.203125 C 202.035156 46.894531 196.082031 46.753906 190.128906 46.753906 C 188.535156 41.460938 186.90625 36.265625 185.171875 31.300781 L 185.152344 31.261719 L 185.132812 31.203125 C 184.992188 30.996094 184.875 30.871094 184.738281 30.671875 Z M 252.414062 30.710938 C 254.164062 31.480469 255.910156 32.246094 257.625 33.070312 C 256.269531 32.460938 254.832031 31.945312 253.417969 31.398438 L 253.101562 31.125 L 253.082031 31.101562 C 252.878906 30.960938 252.625 30.851562 252.414062 30.710938 Z M 156.929688 31.222656 C 156.621094 32.160156 156.3125 33.085938 156.023438 34.113281 C 135.046875 40.488281 116.617188 48.582031 100.621094 57.996094 C 100.230469 55.804688 100.34375 53.484375 101.132812 51 C 101.875 48.660156 103.253906 46.175781 105.1875 43.566406 C 120.066406 37.898438 137.238281 33.660156 156.929688 31.222656 Z M 255.109375 32.890625 C 265.832031 37.34375 274.8125 43.660156 282.152344 51.488281 C 276.726562 48.535156 270.898438 45.804688 264.667969 43.351562 C 262.46875 40.042969 259.292969 36.5625 255.109375 32.890625 Z M 226.15625 33.480469 C 240.226562 36.027344 252.859375 39.578125 264.136719 44 C 266.902344 48.226562 268.109375 52.101562 267.933594 55.617188 C 267.910156 56.027344 267.8125 56.417969 267.753906 56.816406 C 267.386719 56.707031 267.042969 56.570312 266.671875 56.464844 C 260.191406 54.585938 253.433594 53.019531 246.496094 51.707031 C 241.257812 48.875 235.796875 46.152344 230.113281 43.566406 C 229.296875 40.929688 228.433594 38.402344 227.476562 36.117188 C 227.070312 35.148438 226.589844 34.382812 226.160156 33.484375 Z M 155.730469 35.054688 C 155.6875 35.21875 155.636719 35.339844 155.59375 35.507812 C 154.878906 38.253906 154.261719 41.320312 153.683594 44.589844 C 151.382812 46.128906 149.117188 47.703125 146.898438 49.308594 C 131.320312 51.160156 116.402344 53.96875 102.84375 57.585938 C 118.214844 48.746094 135.832031 41.140625 155.730469 35.054688 Z M 261.757812 35.152344 C 263.464844 36.03125 265.160156 36.933594 266.832031 37.867188 C 282.039062 46.339844 295.792969 57.035156 307.621094 69.535156 C 300.898438 63.34375 293.117188 57.714844 284.296875 52.707031 C 279.261719 47.011719 273.511719 41.96875 266.832031 37.863281 C 265.222656 36.878906 263.464844 36.039062 261.757812 35.152344 Z M 103.910156 35.761719 C 99.101562 39.351562 94.789062 43.53125 91.085938 48.382812 C 90.925781 48.59375 90.789062 48.824219 90.632812 49.03125 C 73.980469 57.273438 60.746094 67.585938 50.648438 79.40625 C 65.128906 61.503906 83.238281 46.59375 103.910156 35.765625 Z M 103.828125 44.078125 C 102.242188 46.386719 101.066406 48.628906 100.386719 50.761719 C 99.535156 53.453125 99.402344 56.007812 99.875 58.410156 C 94.859375 59.8125 89.976562 61.292969 85.402344 62.910156 C 84.492188 63.234375 83.65625 63.582031 82.765625 63.914062 C 85.160156 58.742188 87.953125 53.964844 91.164062 49.640625 C 95.179688 47.660156 99.402344 45.808594 103.828125 44.078125 Z M 265.394531 44.472656 C 272.019531 47.128906 278.128906 50.109375 283.824219 53.335938 C 284.652344 54.28125 285.539062 55.167969 286.324219 56.148438 C 289.007812 59.503906 291.398438 63.117188 293.578125 66.902344 C 285.875 63.035156 277.480469 59.746094 268.523438 57.054688 C 268.59375 56.589844 268.699219 56.132812 268.722656 55.65625 C 268.894531 52.195312 267.832031 48.46875 265.398438 44.472656 Z M 230.464844 44.609375 C 235.160156 46.757812 239.75 48.976562 244.132812 51.292969 C 240.03125 50.558594 235.863281 49.917969 231.644531 49.367188 C 231.25 47.78125 230.90625 46.09375 230.464844 44.609375 Z M 153.527344 45.632812 C 153.363281 46.59375 153.226562 47.636719 153.074219 48.640625 C 151.558594 48.792969 150.035156 48.917969 148.53125 49.089844 C 150.171875 47.917969 151.835938 46.769531 153.527344 45.632812 Z M 185.328125 47.539062 C 186.738281 47.519531 188.148438 47.539062 189.558594 47.539062 C 193.046875 59.207031 196.191406 71.558594 199 84.417969 C 192.242188 84.820312 185.363281 84.980469 178.523438 84.851562 C 170.25 84.691406 162.097656 84.097656 154.292969 83.160156 C 159.105469 70.15625 164.640625 58.300781 170.855469 48.046875 C 171.65625 48.007812 172.449219 47.929688 173.253906 47.890625 C 177.269531 47.707031 181.296875 47.589844 185.328125 47.539062 Z M 190.363281 47.539062 C 196.597656 47.542969 202.828125 47.707031 209.007812 48.050781 C 218.445312 55.703125 227.015625 63.898438 234.871094 72.464844 C 235.117188 74.617188 235.363281 76.769531 235.5625 79.011719 C 224.976562 81.757812 212.699219 83.589844 199.804688 84.398438 C 197.003906 71.550781 193.847656 59.207031 190.363281 47.539062 Z M 169.851562 48.109375 C 163.695312 58.351562 158.230469 70.15625 153.46875 83.0625 C 152.636719 82.957031 151.8125 82.839844 150.992188 82.726562 C 151.449219 70.164062 152.339844 58.890625 153.742188 49.367188 C 159.066406 48.835938 164.433594 48.410156 169.851562 48.109375 Z M 210.367188 48.148438 C 217.339844 48.5625 224.238281 49.203125 231.019531 50.074219 C 232.570312 56.394531 233.796875 63.46875 234.714844 71.1875 C 227.265625 63.136719 219.214844 55.390625 210.367188 48.148438 Z M 152.941406 49.445312 C 151.546875 58.953125 150.644531 70.164062 150.1875 82.628906 C 138.089844 80.933594 127.207031 78.253906 118.679688 74.648438 C 127.226562 65.863281 136.75 57.640625 147.179688 50.074219 C 149.089844 49.847656 151.011719 49.640625 152.941406 49.445312 Z M 231.863281 50.191406 C 236.734375 50.832031 241.550781 51.5625 246.261719 52.453125 C 252.820312 56 259.019531 59.722656 264.886719 63.621094 C 262.496094 66.867188 258.820312 69.78125 254.03125 72.308594 C 250.171875 74.34375 245.566406 76.113281 240.519531 77.65625 C 238.917969 75.796875 237.289062 73.957031 235.621094 72.132812 C 234.703125 64.113281 233.464844 56.757812 231.863281 50.191406 Z M 145.523438 50.289062 C 135.445312 57.703125 126.242188 65.753906 117.933594 74.3125 C 114.300781 72.726562 110.992188 71.023438 108.394531 69.085938 C 105.082031 66.613281 102.703125 63.871094 101.433594 60.867188 C 101.167969 60.246094 100.988281 59.605469 100.820312 58.960938 C 114.5 55.179688 129.652344 52.246094 145.527344 50.289062 Z M 89.671875 50.390625 C 86.640625 54.644531 83.996094 59.308594 81.722656 64.328125 C 68.390625 69.367188 57.273438 75.289062 49.570312 81.980469 C 50.0625 81.375 50.515625 80.753906 51.023438 80.152344 C 60.804688 68.628906 73.609375 58.535156 89.671875 50.386719 Z M 248.722656 52.945312 C 254.800781 54.15625 260.730469 55.558594 266.441406 57.210938 C 266.851562 57.328125 267.234375 57.484375 267.640625 57.605469 C 267.261719 59.507812 266.492188 61.300781 265.339844 63.011719 C 260.078125 59.511719 254.535156 56.164062 248.722656 52.945312 Z M 285.96875 54.597656 C 298.332031 61.902344 308.535156 70.484375 316.652344 80.074219 C 318.179688 81.878906 319.628906 83.722656 321.015625 85.597656 C 322.269531 87.289062 323.4375 89.007812 324.578125 90.75 C 317 81.371094 306.820312 73.675781 294.820312 67.492188 C 292.476562 63.308594 289.875 59.335938 286.933594 55.65625 C 286.632812 55.28125 286.273438 54.964844 285.96875 54.59375 Z M 268.40625 57.839844 C 277.675781 60.636719 286.363281 64.03125 294.25 68.082031 C 299.144531 76.871094 302.734375 86.710938 305.128906 97.296875 C 294.347656 85.136719 281.347656 73.730469 265.988281 63.441406 C 267.179688 61.679688 268 59.820312 268.410156 57.839844 Z M 100.074219 59.234375 C 100.246094 59.894531 100.433594 60.546875 100.703125 61.183594 C 102.042969 64.351562 104.53125 67.183594 107.921875 69.714844 C 110.515625 71.652344 113.777344 73.363281 117.339844 74.941406 C 101.644531 91.246094 89.214844 109.355469 79.660156 128.222656 C 78.902344 128.460938 78.105469 128.664062 77.359375 128.910156 C 75.382812 129.554688 73.546875 130.300781 71.636719 130.992188 C 70.957031 109.996094 73.175781 90.308594 78.832031 73.707031 C 85.355469 68.605469 92.441406 63.777344 100.074219 59.238281 Z M 97.398438 59.921875 C 90.992188 63.84375 84.96875 67.964844 79.363281 72.289062 C 80.265625 69.757812 81.25 67.3125 82.3125 64.9375 C 83.4375 64.515625 84.5 64.070312 85.65625 63.660156 C 89.398438 62.332031 93.351562 61.105469 97.398438 59.921875 Z M 265.535156 64.050781 C 281.285156 74.59375 294.542969 86.316406 305.460938 98.808594 C 307.980469 110.589844 308.957031 123.285156 308.6875 136.433594 C 307.429688 135.90625 306.265625 135.335938 304.96875 134.824219 C 295.144531 130.949219 284.097656 127.671875 272.339844 124.875 C 263.996094 108.6875 253.605469 93 241.050781 78.304688 C 246.011719 76.765625 250.570312 75.019531 254.402344 72.996094 C 259.265625 70.429688 263.054688 67.4375 265.535156 64.050781 Z M 81.273438 65.328125 C 80.148438 67.890625 79.105469 70.503906 78.167969 73.234375 C 62.03125 85.882812 49.226562 100.117188 39.539062 115.222656 C 37.664062 109.589844 37.550781 103.484375 39.558594 96.84375 C 39.691406 96.464844 39.9375 96.097656 40.089844 95.722656 C 41.875 92.636719 43.824219 89.617188 45.949219 86.679688 C 53.292969 78.574219 65.652344 71.320312 81.273438 65.328125 Z M 295.492188 68.671875 C 310.097656 76.378906 321.867188 86.371094 329.378906 98.925781 C 331.433594 108.203125 329.511719 116.410156 324.480469 123.660156 C 319.34375 115.035156 313.277344 106.625 306.230469 98.535156 C 303.910156 87.738281 300.367188 77.675781 295.492188 68.671875 Z M 235.78125 73.410156 C 237.128906 74.894531 238.433594 76.402344 239.734375 77.910156 C 238.640625 78.238281 237.46875 78.515625 236.332031 78.816406 C 236.167969 76.972656 235.976562 75.195312 235.78125 73.410156 Z M 77.734375 74.589844 C 72.289062 91.140625 70.152344 110.578125 70.851562 131.285156 C 66.34375 132.945312 62.007812 134.710938 57.890625 136.632812 C 52.722656 133.199219 48.414062 129.453125 45.167969 125.390625 C 42.835938 122.476562 41.078125 119.382812 39.875 116.148438 C 49.367188 101.210938 61.917969 87.144531 77.734375 74.589844 Z M 118.09375 75.277344 C 126.777344 79.007812 137.863281 81.722656 150.167969 83.4375 C 150.054688 86.726562 149.949219 90.078125 149.894531 93.519531 C 147.492188 100.855469 145.300781 108.464844 143.304688 116.285156 C 120.9375 118.25 99.550781 122.066406 80.703125 127.90625 C 90.222656 109.277344 102.546875 91.378906 118.09375 75.277344 Z M 240.265625 78.5625 C 252.710938 93.09375 263.015625 108.613281 271.320312 124.625 C 260.617188 122.117188 249.328125 120.023438 237.589844 118.449219 C 237.8125 104.621094 237.410156 91.558594 236.390625 79.621094 C 237.695312 79.277344 239.015625 78.9375 240.265625 78.5625 Z M 235.625 79.820312 C 236.632812 91.660156 237.019531 104.628906 236.804688 118.351562 C 226.691406 117.015625 216.304688 116.070312 205.785156 115.460938 C 204.042969 105.179688 202.121094 95.03125 199.984375 85.167969 C 212.8125 84.359375 225.035156 82.554688 235.621094 79.820312 Z M 150.957031 83.535156 L 153.179688 83.828125 C 152.320312 86.179688 151.554688 88.648438 150.738281 91.0625 C 150.792969 88.488281 150.871094 86.019531 150.957031 83.535156 Z M 154.003906 83.929688 C 161.898438 84.875 170.140625 85.476562 178.511719 85.636719 C 185.414062 85.769531 192.359375 85.613281 199.179688 85.207031 C 201.316406 95.050781 203.242188 105.160156 204.984375 115.421875 C 201.273438 115.210938 197.5625 114.984375 193.832031 114.871094 C 188.691406 114.710938 183.542969 114.636719 178.390625 114.652344 C 169.144531 114.6875 159.925781 115.03125 150.820312 115.65625 C 150.699219 108.121094 150.589844 100.628906 150.703125 93.617188 C 151.777344 90.34375 152.851562 87.078125 154.003906 83.925781 Z M 39.914062 94.25 C 39.765625 94.570312 39.59375 94.890625 39.460938 95.210938 C 30.519531 110.621094 25.773438 127.738281 24.574219 145.558594 C 21.742188 153.433594 19.613281 161.394531 18.199219 169.40625 C 16.371094 172.609375 14.910156 175.980469 13.796875 179.492188 C 14.539062 148.199219 24 119.027344 39.914062 94.25 Z M 149.875 96.058594 C 149.800781 102.339844 149.925781 109.027344 150.03125 115.714844 C 148.0625 115.855469 146.109375 116.039062 144.152344 116.207031 C 145.914062 109.320312 147.796875 102.570312 149.875 96.058594 Z M 38.164062 99.242188 C 36.8125 105.261719 37.136719 110.886719 38.988281 116.089844 C 33.5 124.777344 29.042969 133.75 25.558594 142.886719 C 26.914062 127.539062 31.003906 112.78125 38.164062 99.242188 Z M 306.554688 100.046875 C 313.28125 107.890625 319.078125 116.035156 324.019531 124.367188 C 323.261719 125.40625 322.445312 126.414062 321.558594 127.414062 C 318.492188 130.878906 314.53125 134.054688 310.054688 137.027344 L 309.464844 136.773438 C 309.75 123.976562 308.898438 111.589844 306.554688 100.046875 Z M 330.527344 101.128906 C 339.382812 118.691406 343.21875 138.238281 342.878906 158.375 C 342.132812 157.566406 341.394531 156.75 340.578125 155.957031 C 340.003906 155.402344 339.28125 154.890625 338.671875 154.347656 C 335.25 144.207031 330.675781 134.175781 324.921875 124.40625 C 329.769531 117.546875 331.839844 109.765625 330.527344 101.128906 Z M 332.75 103.863281 C 345.152344 126.371094 352.417969 152.007812 353.105469 179.234375 C 352.335938 172 349.035156 165.300781 343.648438 159.183594 C 344.078125 139.832031 340.703125 120.96875 332.75 103.859375 Z M 178.382812 115.460938 C 183.523438 115.441406 188.671875 115.5 193.800781 115.65625 C 197.585938 115.773438 201.351562 115.996094 205.109375 116.207031 C 207.6875 131.488281 209.71875 147.070312 211.445312 162.605469 C 201.703125 163.230469 191.796875 163.503906 181.902344 163.429688 C 172.074219 163.355469 162.261719 162.917969 152.636719 162.152344 C 151.960938 151.832031 151.433594 141.613281 151.082031 131.660156 C 150.898438 126.425781 150.894531 121.527344 150.808594 116.464844 C 159.910156 115.839844 169.136719 115.496094 178.382812 115.460938 Z M 205.898438 116.246094 C 216.375 116.859375 226.703125 117.824219 236.777344 119.15625 C 236.707031 123.210938 236.609375 127.300781 236.441406 131.464844 C 236.054688 140.890625 235.40625 150.574219 234.535156 160.34375 C 227.25 161.273438 219.808594 162.019531 212.230469 162.523438 C 210.511719 147.023438 208.46875 131.5 205.898438 116.25 Z M 150.023438 116.523438 C 150.109375 121.582031 150.117188 126.46875 150.296875 131.699219 C 150.648438 141.621094 151.160156 151.808594 151.832031 162.09375 C 146.207031 161.632812 140.6875 161.019531 135.234375 160.324219 C 137.027344 148.625 139.160156 137.035156 141.742188 125.804688 C 142.425781 122.839844 143.1875 119.949219 143.925781 117.035156 C 145.957031 116.859375 147.976562 116.667969 150.023438 116.523438 Z M 39.355469 116.976562 C 40.578125 120.089844 42.285156 123.074219 44.527344 125.878906 C 47.753906 129.917969 51.988281 133.632812 57.035156 137.027344 C 43.976562 143.21875 33.003906 150.730469 25.136719 159.734375 C 24.96875 154.992188 25.039062 150.296875 25.351562 145.636719 C 28.878906 135.859375 33.539062 126.257812 39.355469 116.972656 Z M 143.101562 117.113281 C 142.386719 119.945312 141.640625 122.742188 140.976562 125.625 C 138.386719 136.878906 136.242188 148.488281 134.449219 160.203125 C 112.632812 157.375 92.445312 152.726562 76.292969 146.148438 C 75.121094 145.671875 74.097656 145.132812 72.96875 144.632812 C 75.144531 139.328125 77.574219 134.078125 80.207031 128.867188 C 99.078125 122.953125 120.589844 119.101562 143.101562 117.113281 Z M 237.5625 119.253906 C 249.492188 120.855469 260.960938 122.980469 271.804688 125.546875 C 275.917969 133.558594 279.5 141.675781 282.621094 149.84375 C 268.695312 154.519531 252.59375 157.992188 235.320312 160.246094 C 236.1875 150.519531 236.84375 140.871094 237.230469 131.484375 C 237.398438 127.347656 237.492188 123.285156 237.5625 119.257812 Z M 324.4375 125.074219 C 329.867188 134.335938 334.25 143.824219 337.574219 153.421875 C 330.589844 147.425781 321.558594 142.074219 310.902344 137.398438 C 315.238281 134.476562 319.109375 131.363281 322.132812 127.941406 C 322.960938 127.011719 323.71875 126.042969 324.433594 125.074219 Z M 272.828125 125.800781 C 284.296875 128.558594 295.078125 131.769531 304.671875 135.550781 C 306.066406 136.101562 307.316406 136.710938 308.664062 137.28125 C 308.65625 137.527344 308.667969 137.765625 308.664062 138.011719 C 302.933594 141.632812 296.28125 144.890625 288.796875 147.742188 C 287.074219 148.398438 285.195312 148.972656 283.390625 149.589844 C 280.332031 141.59375 276.832031 133.648438 272.828125 125.800781 Z M 79.144531 129.183594 C 76.714844 134.03125 74.472656 138.917969 72.4375 143.847656 C 72.089844 139.804688 71.792969 135.78125 71.648438 131.816406 C 73.628906 131.097656 75.539062 130.328125 77.589844 129.65625 C 78.09375 129.488281 78.632812 129.34375 79.144531 129.183594 Z M 70.863281 132.113281 C 71.007812 136.035156 71.304688 140.023438 71.648438 144.027344 C 66.949219 141.890625 62.546875 139.628906 58.707031 137.144531 C 62.585938 135.351562 66.632812 133.671875 70.863281 132.113281 Z M 57.804688 137.539062 C 61.898438 140.222656 66.648438 142.632812 71.707031 144.910156 C 71.722656 145.082031 71.730469 145.25 71.746094 145.421875 C 60.402344 173.511719 55.339844 202.570312 56.015625 229.503906 C 49.878906 226.859375 44.359375 223.910156 39.375 220.753906 C 34.078125 208.277344 30.035156 195.472656 27.652344 182.636719 C 26.304688 175.367188 25.488281 168.09375 25.175781 160.894531 C 33.078125 151.613281 44.320312 143.878906 57.804688 137.539062 Z M 310.144531 137.929688 C 321.4375 142.847656 330.9375 148.492188 338.054688 154.839844 C 339.753906 159.902344 341.148438 164.980469 342.28125 170.074219 C 341.832031 174.839844 341.160156 179.625 340.277344 184.40625 C 338.316406 195.027344 335.210938 205.605469 331.289062 216 C 324.789062 220.734375 317.148438 225.042969 308.316406 228.796875 C 305.378906 226.945312 302.25 225.175781 298.835938 223.527344 C 298.609375 217.523438 298.121094 211.433594 297.363281 205.265625 C 302.574219 189.128906 306.324219 172.683594 308.199219 156.589844 C 308.914062 150.453125 309.273438 144.414062 309.457031 138.421875 C 309.703125 138.265625 309.90625 138.089844 310.144531 137.933594 Z M 308.652344 138.992188 C 308.457031 144.765625 308.101562 150.597656 307.410156 156.507812 C 305.605469 172 302.085938 187.835938 297.164062 203.394531 C 294.875 185.96875 290.390625 168.058594 283.671875 150.316406 C 285.480469 149.699219 287.371094 149.128906 289.101562 148.46875 C 296.417969 145.683594 302.980469 142.527344 308.652344 138.992188 Z M 72.664062 145.34375 C 73.800781 145.84375 74.828125 146.394531 76.007812 146.875 C 92.246094 153.488281 112.480469 158.15625 134.339844 160.992188 C 132.011719 176.347656 130.371094 191.867188 129.382812 207.113281 C 114.578125 209.222656 100.628906 212.195312 88.257812 216.074219 C 80.339844 193.375 74.902344 169.71875 72.660156 147.03125 C 72.613281 146.542969 72.609375 146.066406 72.5625 145.578125 L 72.660156 145.34375 Z M 71.875 147.132812 C 74.125 169.867188 79.5625 193.570312 87.492188 216.3125 C 83.25 217.660156 79.148438 219.078125 75.316406 220.636719 C 68.515625 223.40625 62.417969 226.523438 57.164062 229.957031 L 56.8125 229.816406 C 56.101562 203.351562 60.925781 174.796875 71.875 147.128906 Z M 24.378906 148.390625 C 24.191406 152.433594 24.191406 156.519531 24.359375 160.617188 C 22.476562 162.847656 20.824219 165.171875 19.324219 167.578125 C 20.550781 161.144531 22.234375 154.738281 24.378906 148.390625 Z M 282.917969 150.574219 C 289.828125 168.828125 294.351562 187.257812 296.566406 205.144531 C 294.921875 210.21875 293.121094 215.238281 291.175781 220.222656 C 290.226562 219.839844 289.359375 219.417969 288.382812 219.042969 C 271.8125 212.734375 251.46875 208.390625 229.65625 205.871094 C 232.023438 191.046875 233.917969 175.953125 235.261719 161.046875 C 252.652344 158.792969 268.871094 155.289062 282.917969 150.570312 Z M 339.125 155.742188 C 339.40625 156.003906 339.757812 156.246094 340.027344 156.507812 C 341.03125 157.480469 341.96875 158.476562 342.859375 159.476562 C 342.796875 162.105469 342.671875 164.738281 342.46875 167.382812 C 341.53125 163.492188 340.390625 159.609375 339.125 155.742188 Z M 343.628906 160.382812 C 349.648438 167.476562 352.851562 175.292969 352.5 183.796875 C 351.992188 189.789062 349.9375 195.359375 346.617188 200.546875 C 346.503906 190.460938 345.308594 180.238281 343.039062 170.035156 C 343.339844 166.808594 343.53125 163.589844 343.628906 160.382812 Z M 135.113281 161.109375 C 140.625 161.8125 146.207031 162.417969 151.890625 162.878906 C 152.804688 176.699219 154.082031 190.589844 155.507812 204.339844 C 146.867188 204.945312 138.40625 205.839844 130.15625 206.996094 C 131.144531 191.824219 132.796875 176.386719 135.113281 161.109375 Z M 234.453125 161.148438 C 233.109375 175.984375 231.226562 191.011719 228.867188 205.773438 C 224.628906 205.292969 220.339844 204.894531 216.003906 204.554688 C 215.144531 191.054688 213.839844 177.210938 212.308594 163.308594 C 219.832031 162.808594 227.21875 162.070312 234.453125 161.148438 Z M 24.386719 161.816406 C 24.726562 168.765625 25.566406 175.773438 26.863281 182.773438 C 29.191406 195.316406 33.117188 207.824219 38.214844 220.027344 C 34.332031 217.488281 30.707031 214.863281 27.671875 212.007812 C 22.835938 207.457031 19.1875 202.496094 16.816406 197.144531 C 16.636719 188.03125 17.332031 178.828125 18.9375 169.660156 C 20.507812 166.929688 22.328125 164.328125 24.386719 161.816406 Z M 152.699219 162.957031 C 162.300781 163.71875 172.097656 164.140625 181.902344 164.214844 C 191.824219 164.292969 201.753906 164.019531 211.519531 163.390625 C 213.046875 177.246094 214.335938 191.042969 215.199219 204.5 C 204.027344 203.652344 192.625 203.210938 181.214844 203.300781 C 172.855469 203.363281 164.527344 203.738281 156.296875 204.300781 C 154.871094 190.589844 153.609375 176.742188 152.695312 162.960938 Z M 17.796875 171.824219 C 16.558594 179.628906 15.960938 187.453125 16.007812 195.21875 C 14.5 191.210938 13.6875 186.992188 13.707031 182.539062 C 13.707031 182.511719 13.707031 182.484375 13.707031 182.460938 C 13.707031 182.453125 13.707031 182.445312 13.707031 182.441406 C 13.707031 182.433594 13.707031 182.425781 13.707031 182.421875 C 14.65625 178.71875 16.0625 175.199219 17.796875 171.824219 Z M 342.742188 172.296875 C 344.777344 182.121094 345.835938 191.96875 345.871094 201.664062 C 343.230469 205.519531 339.898438 209.164062 335.878906 212.574219 C 334.847656 213.449219 333.609375 214.25 332.496094 215.09375 C 336.210938 205.046875 339.136719 194.816406 341.03125 184.5625 C 341.789062 180.46875 342.300781 176.382812 342.742188 172.292969 Z M 353.1875 184.582031 C 353.003906 211.839844 346.148438 237.542969 334.207031 260.230469 C 340.597656 246.160156 344.648438 230.894531 346.066406 215.054688 C 346.457031 210.707031 346.644531 206.320312 346.636719 201.902344 C 350.25 196.566406 352.527344 190.792969 353.1875 184.582031 Z M 13.886719 190.972656 C 14.394531 193.140625 15.132812 195.253906 16.03125 197.300781 C 16.117188 201.625 16.378906 205.929688 16.855469 210.199219 C 17.769531 218.386719 19.421875 226.445312 21.714844 234.300781 C 17.253906 220.542969 14.5625 206.011719 13.886719 190.972656 Z M 16.894531 199.1875 C 19.308594 203.992188 22.746094 208.457031 27.121094 212.578125 C 30.433594 215.691406 34.421875 218.558594 38.707031 221.285156 C 41.152344 227.039062 43.832031 232.710938 46.828125 238.273438 C 45.761719 239.359375 44.75 240.472656 43.839844 241.613281 C 37.714844 249.277344 35.25 258.160156 37.425781 268.097656 C 26.691406 250.519531 19.933594 230.703125 17.640625 210.121094 C 17.238281 206.5 17.019531 202.851562 16.894531 199.191406 Z M 345.820312 203.121094 C 345.792969 207.101562 345.640625 211.054688 345.289062 214.976562 C 343.609375 233.734375 338.234375 251.695312 329.613281 267.78125 C 331.671875 257.101562 328.5625 247.691406 321.53125 239.6875 C 325.523438 232.132812 328.949219 224.34375 331.933594 216.449219 C 333.421875 215.359375 335.011719 214.3125 336.359375 213.167969 C 340.074219 210.019531 343.246094 206.667969 345.820312 203.121094 Z M 181.203125 204.085938 C 192.644531 203.996094 204.070312 204.429688 215.265625 205.285156 C 216.21875 220.359375 216.628906 234.734375 216.761719 248.554688 C 204.65625 249.515625 192.347656 250.066406 180.023438 250.066406 C 173.984375 250.066406 167.964844 249.925781 161.96875 249.695312 C 159.835938 235.511719 157.988281 220.457031 156.382812 205.085938 C 164.582031 204.527344 172.875 204.144531 181.203125 204.082031 Z M 155.574219 205.125 C 157.175781 220.46875 159.03125 235.484375 161.160156 249.65625 C 150.261719 249.214844 139.511719 248.367188 129.046875 247.15625 C 129.039062 246.769531 129.011719 246.40625 129.003906 246.015625 C 128.867188 233.734375 129.273438 220.875 130.105469 207.800781 C 138.386719 206.632812 146.894531 205.734375 155.574219 205.125 Z M 216.054688 205.363281 C 220.335938 205.699219 224.570312 206.089844 228.757812 206.5625 C 226.449219 220.910156 223.652344 234.925781 220.5 248.238281 L 217.546875 248.496094 C 217.414062 234.71875 217 220.382812 216.054688 205.363281 Z M 229.527344 206.660156 C 251.300781 209.171875 271.605469 213.492188 288.09375 219.773438 C 289.070312 220.144531 289.921875 220.566406 290.867188 220.953125 C 288.695312 226.476562 286.351562 231.910156 283.828125 237.269531 C 265.039062 242.5625 243.640625 246.167969 221.324219 248.179688 C 224.460938 234.910156 227.226562 220.949219 229.527344 206.660156 Z M 296.75 207.035156 C 297.375 212.472656 297.796875 217.847656 298.007812 223.152344 C 296.070312 222.238281 293.964844 221.394531 291.890625 220.539062 C 293.632812 216.070312 295.25 211.574219 296.75 207.035156 Z M 129.300781 207.917969 C 128.476562 220.949219 128.082031 233.765625 128.21875 246.015625 C 128.222656 246.371094 128.234375 246.707031 128.238281 247.058594 C 118.054688 245.859375 108.195312 244.292969 98.777344 242.359375 C 94.992188 234.058594 91.554688 225.535156 88.492188 216.824219 C 100.757812 212.976562 114.601562 210.019531 129.300781 207.917969 Z M 87.726562 217.039062 C 90.730469 225.59375 94.109375 233.980469 97.8125 242.144531 C 86.105469 239.703125 75.046875 236.765625 65.144531 233.179688 C 62.679688 232.285156 60.394531 231.292969 58.066406 230.328125 C 63.160156 227.042969 69.015625 224.042969 75.589844 221.363281 C 79.40625 219.808594 83.492188 218.386719 87.722656 217.039062 Z M 330.714844 217.375 C 327.871094 224.734375 324.660156 231.996094 320.9375 239.058594 C 317.71875 235.527344 313.652344 232.300781 309.019531 229.308594 C 317.246094 225.777344 324.484375 221.773438 330.714844 217.375 Z M 291.597656 221.265625 C 293.785156 222.167969 296.011719 223.046875 298.046875 224.019531 C 298.152344 226.925781 298.203125 229.8125 298.183594 232.667969 L 296.433594 233.335938 C 292.722656 234.621094 288.835938 235.816406 284.871094 236.953125 C 287.277344 231.800781 289.511719 226.570312 291.597656 221.265625 Z M 39.851562 221.992188 C 44.734375 225.007812 50.097656 227.796875 56.019531 230.328125 C 56.023438 230.453125 56.015625 230.578125 56.019531 230.703125 C 52.777344 232.902344 49.902344 235.230469 47.402344 237.703125 C 44.636719 232.558594 42.144531 227.300781 39.851562 221.992188 Z M 298.863281 224.453125 C 301.90625 225.941406 304.78125 227.5 307.4375 229.148438 C 304.730469 230.28125 301.863281 231.332031 298.980469 232.375 C 298.992188 229.753906 298.949219 227.113281 298.863281 224.453125 Z M 308.203125 229.679688 C 313.066406 232.789062 317.277344 236.160156 320.574219 239.824219 C 312.839844 254.351562 303.253906 268 292.351562 280.285156 C 295.820312 268.671875 298 255.953125 298.761719 242.5 C 298.9375 239.457031 298.929688 236.332031 298.960938 233.21875 C 302.121094 232.082031 305.253906 230.925781 308.203125 229.679688 Z M 57.253906 230.820312 C 59.761719 231.871094 62.242188 232.941406 64.90625 233.90625 C 75.003906 237.566406 86.277344 240.558594 98.222656 243.027344 C 101.445312 250.070312 104.84375 256.976562 108.546875 263.574219 C 114.011719 273.308594 120.019531 282.40625 126.425781 290.800781 C 117.695312 293.464844 110.394531 296.742188 105.417969 300.648438 C 104.386719 301.460938 103.496094 302.320312 102.667969 303.1875 C 86.199219 290.523438 71.667969 274.894531 59.710938 257.574219 C 58.160156 249.460938 57.171875 241.003906 56.820312 232.296875 C 56.804688 231.921875 56.832031 231.53125 56.820312 231.15625 C 56.976562 231.050781 57.09375 230.925781 57.253906 230.820312 Z M 56.035156 231.746094 C 56.042969 231.9375 56.027344 232.140625 56.035156 232.335938 C 56.363281 240.488281 57.292969 248.394531 58.671875 256.042969 C 54.785156 250.308594 51.117188 244.457031 47.835938 238.410156 C 50.191406 236.0625 52.988281 233.855469 56.035156 231.746094 Z M 298.179688 233.515625 C 298.148438 236.511719 298.152344 239.527344 297.984375 242.457031 C 297.1875 256.527344 294.796875 269.738281 291.042969 281.738281 C 289.1875 283.785156 287.386719 285.886719 285.457031 287.851562 C 279.402344 294.003906 272.917969 299.617188 266.183594 304.796875 C 263.667969 300.019531 258.625 296.09375 251.882812 292.941406 C 251.199219 292.621094 250.402344 292.363281 249.679688 292.058594 C 255.511719 285.351562 261.039062 278.1875 266.144531 270.550781 C 272.976562 260.332031 279.03125 249.328125 284.414062 237.9375 C 288.644531 236.738281 292.757812 235.445312 296.707031 234.082031 C 297.21875 233.90625 297.671875 233.691406 298.179688 233.511719 Z M 283.410156 238.191406 C 278.113281 249.335938 272.164062 260.109375 265.472656 270.121094 C 260.335938 277.804688 254.78125 285.011719 248.914062 291.746094 C 240.226562 288.195312 229.207031 285.726562 217.015625 284.292969 C 217.359375 277.421875 217.601562 270.261719 217.683594 262.6875 C 218.609375 259.265625 219.527344 255.835938 220.398438 252.289062 C 220.660156 251.207031 220.90625 250.078125 221.164062 248.984375 C 243.359375 247 264.644531 243.425781 283.410156 238.191406 Z M 47.246094 238.980469 C 50.785156 245.488281 54.734375 251.8125 58.964844 257.949219 C 61.9375 273.382812 67.125 287.464844 74.246094 299.628906 C 64.324219 295.347656 56 290.515625 49.820312 285.257812 C 45.753906 280.4375 42.058594 275.363281 38.707031 270.082031 C 35.679688 259.464844 38.019531 250.179688 44.472656 242.105469 C 45.320312 241.042969 46.253906 240 47.246094 238.980469 Z M 321.132812 240.453125 C 328.105469 248.5 331.078125 257.816406 328.703125 268.566406 C 319.144531 284.5625 302.582031 296.316406 282.132812 304.5625 C 285.945312 297.75 289.164062 290.277344 291.710938 282.191406 C 303.113281 269.578125 313.105469 255.496094 321.132812 240.457031 Z M 99.207031 243.246094 C 108.511719 245.136719 118.238281 246.664062 128.273438 247.84375 C 128.5 262.792969 129.476562 276.820312 131.125 289.484375 C 129.8125 289.832031 128.507812 290.191406 127.25 290.566406 C 120.796875 282.132812 114.738281 272.988281 109.234375 263.179688 C 105.644531 256.78125 102.34375 250.070312 99.207031 243.246094 Z M 129.078125 247.945312 C 139.574219 249.15625 150.351562 250 161.277344 250.441406 C 161.4375 251.5 161.566406 252.65625 161.726562 253.703125 C 163.375 264.332031 165.152344 274.332031 167.039062 283.644531 C 154.429688 284.671875 142.367188 286.558594 131.910156 289.269531 C 130.277344 276.703125 129.308594 262.769531 129.078125 247.941406 Z M 220.335938 249.0625 C 220.097656 250.070312 219.871094 251.113281 219.628906 252.113281 C 219.003906 254.660156 218.335938 257.097656 217.679688 259.582031 C 217.699219 256.265625 217.589844 252.722656 217.5625 249.300781 Z M 216.777344 249.359375 C 216.8125 253.570312 216.953125 257.972656 216.914062 262.019531 C 216.910156 262.207031 216.894531 262.363281 216.894531 262.550781 C 214.894531 269.9375 212.777344 276.976562 210.542969 283.644531 C 202.472656 282.949219 194.074219 282.628906 185.601562 282.742188 C 181.96875 282.789062 178.328125 282.902344 174.707031 283.09375 C 172.402344 283.214844 170.125 283.40625 167.84375 283.585938 C 165.953125 274.257812 164.164062 264.234375 162.511719 253.585938 C 162.359375 252.589844 162.234375 251.488281 162.082031 250.480469 C 168.046875 250.710938 174.03125 250.855469 180.035156 250.855469 C 192.359375 250.855469 204.671875 250.320312 216.777344 249.359375 Z M 60.144531 259.660156 C 71.917969 276.386719 86.113281 291.464844 102.113281 303.777344 C 100.84375 305.207031 99.863281 306.703125 99.203125 308.277344 C 94.269531 306.894531 89.460938 305.449219 84.964844 303.855469 C 81.648438 302.679688 78.488281 301.441406 75.445312 300.160156 C 68.386719 288.371094 63.226562 274.675781 60.144531 259.660156 Z M 216.796875 266.089844 C 216.691406 272.351562 216.515625 278.433594 216.226562 284.195312 C 214.613281 284.011719 212.992188 283.851562 211.347656 283.703125 C 213.234375 278.0625 215.078125 272.246094 216.796875 266.089844 Z M 327.167969 272.183594 C 326.644531 273.074219 326.101562 273.957031 325.558594 274.835938 C 319.15625 284.46875 311.8125 293.4375 303.589844 301.554688 L 303.46875 301.671875 C 292.917969 311.382812 280.53125 319.390625 266.554688 325.222656 C 272.289062 319.730469 277.226562 313.085938 281.503906 305.660156 C 301.074219 297.921875 317.117188 286.945312 327.171875 272.179688 Z M 185.625 283.527344 C 193.996094 283.417969 202.296875 283.75 210.269531 284.429688 C 205.570312 298.316406 200.386719 310.46875 194.808594 319.9375 C 188.910156 320.027344 183.003906 319.957031 177.109375 319.757812 C 173.90625 310.285156 170.835938 298.234375 168.003906 284.375 C 170.25 284.199219 172.480469 284.003906 174.75 283.882812 C 178.359375 283.691406 182 283.574219 185.625 283.527344 Z M 290.394531 283.644531 C 287.84375 291.378906 284.679688 298.523438 280.953125 305.035156 C 276.707031 306.707031 272.328125 308.257812 267.777344 309.632812 C 267.554688 308.222656 267.09375 306.878906 266.496094 305.585938 C 273.328125 300.34375 279.894531 294.652344 286.027344 288.421875 C 287.535156 286.886719 288.929688 285.230469 290.394531 283.644531 Z M 167.214844 284.429688 C 170.027344 298.214844 173.074219 310.230469 176.28125 319.738281 C 175.042969 319.695312 173.800781 319.679688 172.566406 319.621094 C 166.15625 319.324219 159.8125 318.804688 153.527344 318.1875 C 146.375 312.382812 139.566406 305.558594 133.132812 297.957031 C 132.714844 295.429688 132.363281 292.738281 132.011719 290.074219 C 142.460938 287.359375 154.566406 285.460938 167.214844 284.433594 Z M 211.09375 284.488281 C 212.820312 284.644531 214.519531 284.828125 216.207031 285.019531 C 215.535156 297.960938 214.40625 309.515625 212.824219 319.148438 C 207.152344 319.542969 201.449219 319.828125 195.714844 319.933594 C 201.28125 310.410156 206.433594 298.304688 211.09375 284.488281 Z M 216.992188 285.117188 C 229.003906 286.539062 239.84375 288.921875 248.382812 292.375 C 239.484375 302.503906 229.820312 311.414062 219.492188 318.65625 C 217.554688 318.832031 215.601562 318.949219 213.648438 319.089844 C 215.222656 309.46875 216.328125 297.964844 216.992188 285.117188 Z M 49.386719 285.945312 L 49.507812 286.042969 C 59.835938 298.199219 72.378906 308.753906 86.953125 317.027344 C 88.109375 318.269531 89.292969 319.480469 90.511719 320.644531 C 95.285156 325.199219 100.542969 329.113281 106.246094 332.359375 C 83.992188 321.136719 64.605469 305.230469 49.386719 285.945312 Z M 52.769531 288.597656 C 58.777344 293.039062 66.25 297.105469 74.917969 300.769531 C 78.023438 305.929688 81.421875 310.785156 85.261719 315.140625 C 72.867188 307.820312 61.992188 298.835938 52.773438 288.597656 Z M 131.226562 290.289062 C 131.511719 292.449219 131.800781 294.625 132.128906 296.699219 C 130.660156 294.933594 129.230469 293.097656 127.804688 291.253906 Z M 126.976562 291.46875 C 128.757812 293.78125 130.519531 296.105469 132.367188 298.289062 C 133.433594 304.730469 134.746094 310.640625 136.222656 316.082031 C 129.191406 315.039062 122.320312 313.808594 115.707031 312.386719 C 111.449219 309.679688 107.304688 306.761719 103.257812 303.675781 C 104.046875 302.851562 104.902344 302.039062 105.894531 301.257812 C 110.804688 297.398438 118.15625 294.128906 126.976562 291.46875 Z M 249.148438 292.6875 C 249.9375 293.019531 250.804688 293.320312 251.550781 293.671875 C 258.269531 296.8125 263.152344 300.695312 265.53125 305.328125 C 261.898438 308.097656 258.207031 310.75 254.402344 313.191406 C 243.757812 315.632812 232.566406 317.410156 221.085938 318.519531 C 231.117188 311.339844 240.492188 302.570312 249.152344 292.6875 Z M 133.445312 299.609375 C 139.351562 306.476562 145.578125 312.664062 152.089844 318.046875 C 147.027344 317.527344 142.007812 316.957031 137.085938 316.238281 C 135.695312 311.152344 134.480469 305.605469 133.445312 299.609375 Z M 76.097656 301.296875 C 78.859375 302.441406 81.730469 303.546875 84.710938 304.601562 C 89.195312 306.191406 93.976562 307.644531 98.890625 309.023438 C 97.851562 312.015625 97.976562 315.253906 99.480469 318.65625 C 100.234375 320.367188 101.347656 322.109375 102.804688 323.90625 C 97.476562 321.679688 92.34375 319.199219 87.464844 316.4375 C 83.242188 311.902344 79.476562 306.789062 76.09375 301.296875 Z M 102.726562 304.265625 C 106.269531 306.96875 109.910156 309.515625 113.621094 311.933594 C 108.917969 310.886719 104.390625 309.71875 99.972656 308.492188 C 100.59375 307.03125 101.523438 305.625 102.726562 304.265625 Z M 265.867188 306.09375 C 266.410156 307.308594 266.8125 308.554688 267.007812 309.871094 C 266.578125 309.996094 266.179688 310.15625 265.75 310.28125 C 262.84375 311.125 259.847656 311.875 256.839844 312.601562 C 259.917969 310.5625 262.902344 308.347656 265.867188 306.09375 Z M 280.324219 306.113281 C 275.933594 313.5625 270.882812 320.214844 265 325.636719 L 264.410156 326.148438 C 263.566406 326.484375 262.691406 326.773438 261.835938 327.089844 C 266.496094 320.878906 268.359375 315.332031 267.855469 310.421875 C 272.148438 309.128906 276.292969 307.671875 280.324219 306.113281 Z M 99.636719 309.242188 C 104.703125 310.648438 109.921875 311.945312 115.351562 313.113281 C 123.007812 317.972656 130.984375 322.195312 139.226562 325.675781 C 140.40625 328.886719 141.640625 331.894531 143.003906 334.523438 C 129.160156 332.761719 116.292969 329.363281 104.476562 324.59375 C 102.539062 322.425781 101.089844 320.335938 100.207031 318.34375 C 98.765625 315.078125 98.652344 312.058594 99.636719 309.242188 Z M 267.066406 310.675781 C 267.511719 315.546875 265.570312 321.160156 260.496094 327.582031 C 245.296875 333.058594 228.339844 335.988281 209.835938 335.800781 C 210.117188 334.90625 210.414062 334.074219 210.679688 333.105469 C 226.175781 329.375 240.992188 322.742188 254.753906 313.917969 C 258.5625 313.042969 262.3125 312.085938 265.964844 311.03125 C 266.339844 310.921875 266.691406 310.785156 267.066406 310.675781 Z M 292.261719 311.738281 C 280.835938 321.152344 268.125 329.105469 254.4375 335.328125 L 254.457031 335.289062 C 255.160156 334.621094 255.761719 333.976562 256.40625 333.324219 C 259.390625 331.371094 262.230469 329.164062 264.921875 326.738281 C 274.847656 322.777344 283.972656 317.707031 292.257812 311.738281 Z M 117.535156 313.566406 C 123.65625 314.839844 129.949219 315.976562 136.414062 316.925781 C 137.175781 319.667969 138.007812 322.210938 138.875 324.652344 C 131.539062 321.511719 124.402344 317.8125 117.535156 313.566406 Z M 252.550781 314.390625 C 239.480469 322.539062 225.492188 328.675781 210.894531 332.242188 C 211.566406 329.726562 212.191406 326.960938 212.761719 324.003906 C 215.136719 322.558594 217.476562 321.019531 219.785156 319.40625 C 231.054688 318.363281 242.042969 316.703125 252.550781 314.390625 Z M 137.300781 317.066406 C 142.523438 317.820312 147.855469 318.417969 153.230469 318.953125 C 161.925781 325.976562 171.117188 331.535156 180.707031 335.289062 L 179.800781 335.367188 C 166.023438 333.988281 152.636719 330.421875 139.878906 325.066406 C 138.96875 322.554688 138.097656 319.910156 137.300781 317.066406 Z M 89.273438 318.265625 C 93.96875 320.816406 98.871094 323.136719 103.964844 325.203125 C 107.546875 329.191406 113.148438 333.4375 120.5625 337.863281 C 109.316406 334.148438 99.4375 328.082031 91.042969 320.074219 C 90.433594 319.492188 89.867188 318.863281 89.273438 318.265625 Z M 154.6875 319.109375 C 160.582031 319.671875 166.527344 320.128906 172.523438 320.40625 L 176.539062 320.523438 C 178.570312 326.449219 180.652344 331.394531 182.792969 335.074219 C 182.679688 335.082031 182.566406 335.101562 182.457031 335.113281 C 172.78125 331.527344 163.484375 326.082031 154.6875 319.109375 Z M 218.234375 319.523438 C 216.488281 320.71875 214.722656 321.863281 212.941406 322.960938 C 213.128906 321.953125 213.335938 320.953125 213.511719 319.894531 Z M 212.6875 319.953125 C 212.480469 321.183594 212.238281 322.367188 212.019531 323.53125 C 204.371094 328.164062 196.410156 331.878906 188.179688 334.542969 C 186.992188 334.679688 185.820312 334.777344 184.640625 334.894531 L 184.71875 334.816406 C 184.730469 334.804688 184.730469 334.789062 184.738281 334.777344 C 188.398438 331.160156 191.921875 326.398438 195.300781 320.722656 C 201.128906 320.621094 206.921875 320.355469 212.6875 319.953125 Z M 177.363281 320.542969 C 183.027344 320.730469 188.707031 320.804688 194.375 320.722656 C 191.089844 326.199219 187.691406 330.769531 184.167969 334.246094 L 184.148438 334.265625 L 184.128906 334.265625 C 183.933594 334.496094 183.753906 334.632812 183.558594 334.855469 C 181.460938 331.28125 179.378906 326.410156 177.363281 320.542969 Z M 211.839844 324.574219 C 211.28125 327.398438 210.679688 330.039062 210.03125 332.4375 C 205.152344 333.59375 200.199219 334.457031 195.203125 335.011719 C 193.679688 334.867188 192.160156 334.730469 190.621094 334.542969 C 197.921875 332 205.007812 328.660156 211.839844 324.574219 Z M 105.675781 325.910156 C 117.3125 330.460938 129.949219 333.691406 143.496094 335.367188 C 144.855469 337.875 146.296875 340.105469 147.84375 341.992188 C 139.335938 342.066406 131.378906 341.015625 123.988281 338.945312 C 115.851562 334.355469 109.671875 329.976562 105.675781 325.910156 Z M 140.210938 326.089844 C 151.429688 330.734375 163.113281 333.992188 175.140625 335.621094 C 164.28125 336.191406 153.875 335.839844 143.96875 334.640625 C 143.917969 334.546875 143.859375 334.480469 143.808594 334.382812 C 142.519531 331.917969 141.339844 329.101562 140.210938 326.089844 Z M 262.796875 327.542969 C 261.566406 328.585938 260.308594 329.582031 259.019531 330.53125 C 259.714844 329.746094 260.417969 328.957031 261.027344 328.191406 Z M 259.492188 328.761719 C 258.429688 330.035156 257.238281 331.339844 255.933594 332.675781 C 242.554688 341.433594 226.265625 345.1875 207.355469 342.269531 C 207.742188 341.441406 208.152344 340.726562 208.515625 339.789062 C 208.894531 338.824219 209.222656 337.648438 209.578125 336.566406 C 227.753906 336.773438 244.46875 334.007812 259.492188 328.761719 Z M 209.832031 333.304688 C 209.578125 334.210938 209.273438 334.941406 209.007812 335.78125 C 205.71875 335.730469 202.398438 335.597656 199.015625 335.347656 C 202.65625 334.828125 206.253906 334.140625 209.832031 333.304688 Z M 189.378906 335.210938 L 189.476562 335.210938 L 191.484375 335.425781 C 190.125 335.535156 188.757812 335.5625 187.390625 335.625 C 187.695312 335.527344 187.992188 335.40625 188.296875 335.308594 C 188.660156 335.265625 189.015625 335.253906 189.378906 335.210938 Z M 144.5 335.503906 C 155.65625 336.820312 167.421875 337.085938 179.761719 336.152344 C 180.476562 336.226562 181.191406 336.292969 181.90625 336.351562 C 181.273438 336.511719 180.652344 336.714844 180.019531 336.863281 L 179.996094 336.863281 C 168.910156 340.175781 158.527344 341.792969 148.824219 341.972656 C 147.292969 340.171875 145.863281 337.960938 144.496094 335.503906 Z M 184.265625 335.722656 C 184.226562 335.734375 184.1875 335.75 184.148438 335.761719 L 184.089844 335.742188 Z M 195.238281 335.800781 C 199.828125 336.234375 204.332031 336.496094 208.75 336.566406 C 208.429688 337.542969 208.128906 338.621094 207.789062 339.496094 C 207.398438 340.496094 206.960938 341.265625 206.546875 342.128906 C 200.015625 341.058594 193.171875 339.199219 186.035156 336.46875 C 189.121094 336.363281 192.191406 336.140625 195.238281 335.800781 Z M 183.695312 336.664062 C 186.160156 341.0625 188.507812 344.484375 190.734375 346.789062 C 191.976562 348.070312 193.195312 349.042969 194.375 349.71875 C 193.09375 349.777344 191.820312 349.878906 190.539062 349.914062 C 181.898438 350.152344 173.28125 349.867188 165.089844 349.148438 C 170.488281 347.957031 176.398438 343.984375 182.828125 336.902344 Z M 184.699219 336.804688 C 192.191406 339.746094 199.359375 341.722656 206.214844 342.859375 C 205.226562 344.800781 204.203125 346.5 203.105469 347.65625 C 202.386719 348.414062 201.660156 348.960938 200.902344 349.363281 C 199.296875 349.488281 197.683594 349.554688 196.066406 349.640625 C 194.582031 349.089844 193 348.007812 191.304688 346.257812 C 189.242188 344.125 187.023438 340.878906 184.699219 336.800781 Z M 250.191406 336.921875 C 249.613281 337.25 249.101562 337.609375 248.5 337.921875 L 245.46875 339.101562 C 247.074219 338.445312 248.648438 337.703125 250.191406 336.921875 Z M 181.15625 337.351562 C 173.714844 345.207031 167.050781 348.882812 161.273438 348.753906 C 160.285156 348.648438 159.316406 348.539062 158.34375 348.421875 C 155.132812 347.644531 152.164062 345.695312 149.453125 342.71875 C 159.046875 342.484375 169.292969 340.882812 180.195312 337.628906 L 180.234375 337.609375 Z M 119.242188 338.257812 C 120.699219 338.761719 122.148438 339.25 123.648438 339.671875 C 124.167969 339.964844 124.589844 340.246094 125.125 340.539062 C 123.136719 339.820312 121.195312 339.042969 119.242188 338.257812 Z M 243.738281 339.769531 C 234.40625 343.269531 224.683594 345.953125 214.648438 347.792969 C 210.695312 348.382812 206.65625 348.863281 202.554688 349.207031 C 202.9375 348.90625 203.3125 348.585938 203.675781 348.203125 C 204.886719 346.933594 205.980469 345.089844 207.019531 342.996094 C 220.605469 345.121094 232.894531 343.859375 243.738281 339.769531 Z M 126.34375 340.339844 C 133.246094 342.03125 140.625 342.871094 148.449219 342.757812 C 150.5 345.109375 152.726562 346.875 155.097656 348.027344 C 149.667969 347.261719 144.554688 346.277344 139.914062 345.097656 C 139.296875 344.9375 138.695312 344.753906 138.085938 344.585938 C 134.007812 343.472656 130.269531 342.21875 127.109375 340.792969 C 127.101562 340.789062 127.097656 340.777344 127.089844 340.773438 C 126.808594 340.625 126.617188 340.488281 126.34375 340.339844 Z M 126.34375 340.339844 " fill-opacity="1" fill-rule="evenodd"/></g><g clip-path="url(#0aeac6a4ef)"><path fill="#000000" d="M 74.152344 116.914062 L 34.390625 223.421875 C 33.421875 226.015625 35.339844 228.777344 38.105469 228.777344 L 71.925781 228.777344 C 73.609375 228.777344 75.109375 227.71875 75.667969 226.132812 L 85.113281 199.386719 L 96.539062 165.132812 C 96.808594 164.328125 96.8125 163.453125 96.546875 162.644531 L 81.640625 117.070312 C 80.472656 113.5 75.464844 113.398438 74.152344 116.914062 Z M 130.304688 63.023438 L 100.128906 63.023438 C 97.402344 63.023438 95.488281 65.714844 96.382812 68.292969 L 113.328125 117.160156 L 113.347656 117.09375 L 141.152344 199.386719 L 150.792969 226.15625 C 151.359375 227.726562 152.851562 228.777344 154.523438 228.777344 L 189.1875 228.777344 C 191.953125 228.777344 193.871094 226.015625 192.902344 223.421875 L 134.019531 65.605469 C 133.441406 64.050781 131.957031 63.023438 130.304688 63.023438 " fill-opacity="1" fill-rule="nonzero"/></g><g clip-path="url(#30f26e557d)"><path fill="#000000" d="M 260.964844 145.796875 C 260.96875 145.796875 260.976562 145.796875 260.976562 145.796875 C 279.128906 146.054688 298.589844 153.992188 312.992188 167.070312 L 291.523438 194.621094 C 282.882812 186.773438 271.445312 181.628906 261.0625 181.628906 C 261.03125 181.628906 260.996094 181.628906 260.960938 181.628906 L 260.960938 145.796875 Z M 260.964844 257.472656 L 260.964844 292.785156 C 282.042969 292.605469 299.699219 284.207031 312.992188 272.128906 L 291.695312 243.792969 C 282.796875 251.742188 272.472656 257.261719 260.964844 257.472656 Z M 260.964844 257.472656 " fill-opacity="1" fill-rule="nonzero"/></g><g clip-path="url(#04917cb967)"><path fill="#000000" d="M 240.183594 290.257812 C 208.902344 282.269531 183.480469 255.90625 183.480469 219.382812 C 183.480469 184.671875 206.953125 156.648438 240.183594 148.324219 L 240.183594 187.25 C 228.949219 193.847656 221.359375 205.679688 221.359375 219.644531 C 221.359375 233.714844 229.214844 245.382812 240.183594 251.894531 Z M 240.183594 290.257812 " fill-opacity="1" fill-rule="nonzero"/></g></svg>